<svg aria-hidden="true" style="width:0;height:0;position:absolute;overflow:hidden" xmlns="http://www.w3.org/2000/svg"><defs><symbol id="icon-cross" viewBox="0 0 32 32"><path d="M32 3.223 28.777 0 16 12.777 3.223 0 0 3.223 12.777 16 0 28.777 3.223 32 16 19.223 28.777 32 32 28.777 19.223 16 32 3.223z"/></symbol><symbol id="icon-burger" viewBox="0 0 48 32"><path d="M0 32h48v-5.334H0V32zm0-13.334h48v-5.332H0v5.332zM0 0v5.334h48V0H0z"/></symbol><symbol id="icon-arrow" viewBox="0 0 32 32"><path d="M17.818 30.545V8.418l10.164 10.164L30.546 16 16.001 1.455 1.456 16l2.564 2.564L14.184 8.419v22.127h3.636z"/></symbol></defs></svg>