<svg width="23" height="23" fill="none" xmlns="http://www.w3.org/2000/svg"><path d="M17.5 0c1 0 1.933.383 2.8 1.15.833.8 1.5 1.833 2 3.1.467 1.267.7 2.617.7 4.05 0 2.2-.383 4.267-1.15 6.2-.8 1.967-1.767 3.617-2.9 4.95-1.133 1.367-2.217 2.333-3.25 2.9h-.05l-1.75-1.6v-.7c.833-.767 1.617-1.867 2.35-3.3.733-1.4 1.1-3.133 1.1-5.2 0-1.067-.15-1.933-.45-2.6-.3-.667-.75-1.4-1.35-2.2-.5-.633-.867-1.183-1.1-1.65-.233-.467-.35-1.033-.35-1.7 0-1 .333-1.817 1-2.45.633-.633 1.433-.95 2.4-.95ZM3.6 0c1 0 1.917.383 2.75 1.15.833.8 1.5 1.833 2 3.1.467 1.267.7 2.617.7 4.05 0 2.2-.383 4.267-1.15 6.2-.8 1.967-1.767 3.633-2.9 5s-2.217 2.317-3.25 2.85H1.7L0 20.75v-.7c.833-.767 1.617-1.867 2.35-3.3.733-1.4 1.1-3.133 1.1-5.2 0-1.067-.15-1.933-.45-2.6-.3-.667-.75-1.4-1.35-2.2-.5-.633-.867-1.183-1.1-1.65C.317 4.633.2 4.067.2 3.4c0-1 .333-1.817 1-2.45C1.833.317 2.633 0 3.6 0Z" fill="#fff"/></svg>